<svg width="1536" height="1536" viewBox="0 0 1536 1536" fill="none" xmlns="http://www.w3.org/2000/svg">
<path d="M1239.83 1058.6L1106.42 807.625C1095.78 787.824 1095.78 763.816 1106.42 744.015L1239.83 493.04C1245.03 483.14 1247.75 472.248 1247.75 461.11V106.675C1247.75 92.5666 1238.84 79.6961 1225.23 75.7359C1184.39 63.1129 1141.82 53.7078 1098.26 48.2626C1078.7 45.7875 1061.38 61.1331 1061.38 80.6864V461.358C1061.38 472.496 1058.65 483.386 1053.46 493.286L920.049 744.263C909.406 764.063 909.406 788.072 920.049 807.873L1053.46 1058.85C1058.65 1068.75 1061.38 1079.64 1061.38 1090.78V1471.94C1061.38 1491.75 1078.7 1506.84 1098.26 1504.37C1142.07 1498.92 1184.39 1489.77 1225.48 1476.9C1238.84 1472.69 1248 1460.06 1248 1445.96V1090.78C1248 1079.64 1245.28 1068.75 1240.08 1058.85L1239.83 1058.6Z" fill="#4257F1"/>
<path d="M904.229 1058.83L770.821 807.607C760.178 787.806 760.178 763.797 770.821 743.996L904.229 493.022C909.426 483.121 912.149 472.23 912.149 461.092V86.8556C912.149 66.3122 893.586 50.9669 873.537 54.6795C829.728 62.8474 787.156 74.7277 746.317 90.0734C733.694 94.7761 725.774 107.151 725.774 120.517V461.092C725.774 472.23 723.051 483.121 717.854 493.022L584.445 743.996C573.802 763.797 573.802 787.806 584.445 807.607L717.854 1058.58C723.051 1068.48 725.774 1079.37 725.774 1090.51V1431.58C725.774 1444.95 733.941 1457.32 746.317 1462.03C787.156 1477.62 829.728 1489.5 873.537 1497.42C893.586 1501.13 912.149 1485.79 912.149 1465.24V1090.51C912.149 1079.37 909.426 1068.48 904.229 1058.58V1058.83Z" fill="#4257F1"/>
<path d="M568.015 492.793C573.213 482.892 575.934 472.001 575.934 460.863V215.085C575.934 201.224 560.094 193.799 549.204 202.462C493.266 247.261 444.011 299.981 403.172 359.136C394.014 372.502 389.311 388.343 389.311 404.431V461.111C389.311 472.249 386.589 483.14 381.391 493.041L247.982 744.015C237.339 763.816 237.339 787.825 247.982 807.626L381.391 1058.6C386.589 1068.5 389.311 1079.39 389.311 1090.53V1147.46C389.311 1163.55 393.767 1179.63 403.172 1192.75C444.011 1251.91 493.266 1304.63 549.204 1349.43C559.847 1358.09 575.934 1350.42 575.934 1336.8V1090.53C575.934 1082.12 574.449 1073.95 571.479 1066.27C570.489 1063.8 434.606 807.626 434.606 807.626C423.963 787.825 423.963 763.816 434.606 744.015L568.015 493.041V492.793Z" fill="#4257F1"/>
</svg>
