<svg width="135" height="28" viewBox="0 0 135 28" fill="none" xmlns="http://www.w3.org/2000/svg">
<path d="M18.1778 19.1324L15.7524 14.5694C15.5589 14.2094 15.5589 13.7729 15.7524 13.4129L18.1778 8.85001C18.2723 8.67001 18.3218 8.47199 18.3218 8.2695V1.82555C18.3218 1.56905 18.1598 1.33505 17.9123 1.26305C17.1698 1.03355 16.3958 0.862562 15.6039 0.763563C15.2484 0.718563 14.9334 0.99756 14.9334 1.35306V8.274C14.9334 8.4765 14.8839 8.67449 14.7894 8.85449L12.3639 13.4175C12.1704 13.7775 12.1704 14.2139 12.3639 14.5739L14.7894 19.1369C14.8839 19.3169 14.9334 19.5149 14.9334 19.7174V26.6474C14.9334 27.0073 15.2484 27.2818 15.6039 27.2368C16.4003 27.1378 17.1698 26.9714 17.9168 26.7374C18.1598 26.6609 18.3263 26.4314 18.3263 26.1749V19.7174C18.3263 19.5149 18.2768 19.3169 18.1823 19.1369L18.1778 19.1324Z" fill="#1E39FF"/>
<path d="M12.0763 19.1366L9.6508 14.5691C9.4573 14.2091 9.4573 13.7726 9.6508 13.4126L12.0763 8.84967C12.1708 8.66967 12.2203 8.47165 12.2203 8.26915V1.46521C12.2203 1.09172 11.8828 0.812726 11.5183 0.880225C10.7218 1.02872 9.94777 1.24472 9.20528 1.52372C8.97578 1.60922 8.8318 1.83421 8.8318 2.0772V8.26915C8.8318 8.47165 8.7823 8.66967 8.6878 8.84967L6.26231 13.4126C6.06881 13.7726 6.06881 14.2091 6.26231 14.5691L8.6878 19.1321C8.7823 19.3121 8.8318 19.5101 8.8318 19.7126V25.9135C8.8318 26.1565 8.98028 26.3815 9.20528 26.467C9.94777 26.7505 10.7218 26.9665 11.5183 27.1105C11.8828 27.178 12.2203 26.899 12.2203 26.5255V19.7126C12.2203 19.5101 12.1708 19.3121 12.0763 19.1321V19.1366Z" fill="#1E39FF"/>
<path d="M5.9636 8.84551C6.0581 8.66551 6.10757 8.4675 6.10757 8.265V3.79654C6.10757 3.54454 5.8196 3.40954 5.6216 3.56704C4.60461 4.38153 3.7091 5.34003 2.96661 6.41552C2.80011 6.65852 2.71461 6.94653 2.71461 7.23902V8.2695C2.71461 8.472 2.66511 8.67002 2.57061 8.85002L0.145124 13.413C-0.0483746 13.773 -0.0483746 14.2095 0.145124 14.5695L2.57061 19.1324C2.66511 19.3124 2.71461 19.5104 2.71461 19.7129V20.7479C2.71461 21.0404 2.79561 21.3329 2.96661 21.5714C3.7091 22.6469 4.60461 23.6054 5.6216 24.4199C5.8151 24.5774 6.10757 24.4379 6.10757 24.1904V19.7129C6.10757 19.5599 6.08058 19.4114 6.02658 19.2719C6.00858 19.2269 3.53811 14.5695 3.53811 14.5695C3.34461 14.2095 3.34461 13.773 3.53811 13.413L5.9636 8.85002V8.84551Z" fill="#1E39FF"/>
<path d="M53.5128 11.001C51.1683 11.001 49.4313 11.5545 48.3018 12.6615C47.1679 13.7685 46.6054 15.4065 46.6054 17.5709C46.6054 19.7354 47.1724 21.3734 48.3018 22.4804C49.4313 23.5874 51.1683 24.1409 53.5128 24.1409C55.8573 24.1409 57.5988 23.5874 58.7373 22.4804C59.8758 21.3734 60.4428 19.7354 60.4428 17.5709C60.4428 15.4065 59.8758 13.7685 58.7373 12.6615C57.5988 11.5545 55.8573 11.001 53.5128 11.001ZM56.8923 20.8514C56.1543 21.5939 55.0248 21.9674 53.5128 21.9674C52.0008 21.9674 50.8803 21.5984 50.1469 20.8514C49.4134 20.1089 49.0489 19.0154 49.0489 17.5799C49.0489 16.1444 49.4044 15.051 50.1199 14.304C50.8353 13.5615 51.9648 13.188 53.5128 13.188C55.0608 13.188 56.1498 13.557 56.8923 14.304C57.6303 15.0465 58.0038 16.1399 58.0038 17.5799C58.0038 19.0199 57.6348 20.1089 56.8923 20.8514Z" fill="white"/>
<path d="M73.8483 12.3783C73.3893 11.9058 72.8178 11.5594 72.1293 11.3389C71.4408 11.1139 70.6218 11.0059 69.6723 11.0059C68.6058 11.0059 67.7148 11.1634 66.9903 11.4783C66.2658 11.7933 65.6898 12.2389 65.2578 12.8194C65.1768 12.9274 65.1048 13.0399 65.0328 13.1523V11.3794H62.7108V23.7813H65.0328V17.5578C65.0328 16.1178 65.3793 15.0333 66.0678 14.2953C66.7563 13.5618 67.7733 13.1928 69.1233 13.1928C69.8883 13.1928 70.5093 13.2828 70.9953 13.4673C71.4768 13.6518 71.8548 13.9038 72.1293 14.2368C72.4038 14.5698 72.5928 14.9613 72.7008 15.4158C72.8088 15.8703 72.8628 16.3878 72.8628 16.9683V23.7902H75.1803V16.8198C75.1803 15.8118 75.0722 14.9388 74.8562 14.2053C74.6402 13.4718 74.3028 12.8689 73.8483 12.3964V12.3783Z" fill="white"/>
<path d="M88.5904 12.3783C88.1314 11.9058 87.5599 11.5594 86.8715 11.3389C86.183 11.1139 85.364 11.0059 84.4145 11.0059C83.348 11.0059 82.457 11.1634 81.7325 11.4783C81.008 11.7933 80.432 12.2389 80 12.8194C79.919 12.9274 79.847 13.0399 79.775 13.1523V11.3794H77.453V23.7813H79.775V17.5578C79.775 16.1178 80.1215 15.0333 80.81 14.2953C81.4985 13.5618 82.5155 13.1928 83.8655 13.1928C84.6305 13.1928 85.2515 13.2828 85.7375 13.4673C86.219 13.6518 86.597 13.9038 86.8715 14.2368C87.146 14.5698 87.335 14.9613 87.443 15.4158C87.551 15.8703 87.6049 16.3878 87.6049 16.9683V23.7902H89.9224V16.8198C89.9224 15.8118 89.8144 14.9388 89.5984 14.2053C89.3824 13.4718 89.0449 12.8689 88.5904 12.3964V12.3783Z" fill="white"/>
<path d="M103.721 12.738C102.717 11.5815 101.03 11.001 98.6719 11.001C96.5749 11.001 94.9729 11.559 93.8569 12.6885C92.7409 13.8135 92.1874 15.4334 92.1874 17.5484C92.1874 19.6634 92.7589 21.3554 93.8929 22.4714C95.0314 23.5874 96.7729 24.1454 99.1174 24.1454C101.061 24.1454 102.542 23.7269 103.554 22.8809C104.567 22.0394 105.075 20.9324 105.075 19.5644H102.929C102.924 19.9154 102.83 20.2439 102.641 20.5409C102.447 20.8469 102.186 21.1214 101.858 21.3599C101.525 21.6029 101.124 21.7829 100.661 21.9179C100.197 22.0484 99.6888 22.1159 99.1398 22.1159C98.4243 22.1159 97.7899 22.0394 97.2319 21.8774C96.6739 21.7199 96.2059 21.4634 95.8234 21.1079C95.4409 20.7524 95.1439 20.2844 94.9369 19.7084C94.7929 19.3034 94.6984 18.8309 94.6534 18.2954H105.224V17.8004C105.224 15.5819 104.72 13.8989 103.716 12.738H103.721ZM94.7164 16.4864C94.7704 16.1669 94.8469 15.8699 94.9459 15.5909C95.1529 15.0284 95.4454 14.5604 95.8189 14.1779C96.1924 13.8 96.6334 13.512 97.1419 13.323C97.6504 13.134 98.2038 13.035 98.7978 13.035C99.3918 13.035 99.9723 13.107 100.481 13.26C100.985 13.4085 101.421 13.647 101.777 13.9799C102.132 14.3129 102.416 14.7449 102.614 15.2804C102.744 15.6359 102.83 16.0364 102.879 16.4864H94.7164Z" fill="white"/>
<path d="M119.874 14.25C119.609 13.6065 119.222 13.0395 118.713 12.5535C118.205 12.0675 117.575 11.685 116.819 11.4105C116.063 11.136 115.185 11.001 114.191 11.001C111.864 11.001 110.168 11.55 109.101 12.648C108.035 13.746 107.504 15.3885 107.504 17.5709C107.504 19.7534 108.075 21.3734 109.223 22.4804C110.37 23.5874 112.04 24.1409 114.236 24.1409C115.284 24.1409 116.193 24.0059 116.967 23.7314C117.741 23.4569 118.371 23.0789 118.862 22.5884C119.352 22.1024 119.717 21.5354 119.96 20.8919C120.117 20.4689 120.221 20.0279 120.275 19.5644H118.07C118.034 19.7354 117.989 19.9019 117.926 20.0594C117.777 20.4509 117.543 20.7884 117.228 21.0674C116.913 21.3509 116.513 21.5669 116.031 21.7244C115.55 21.8819 114.965 21.9629 114.285 21.9629C113.687 21.9629 113.12 21.8909 112.589 21.7379C112.058 21.5894 111.599 21.3419 111.203 20.9954C110.811 20.6489 110.505 20.1899 110.28 19.6184C110.055 19.0469 109.943 18.3494 109.943 17.5214C109.943 16.6934 110.046 16.0544 110.253 15.5009C110.46 14.9474 110.748 14.4974 111.113 14.1509C111.477 13.8045 111.923 13.557 112.449 13.4085C112.971 13.26 113.543 13.1835 114.155 13.1835C114.821 13.1835 115.397 13.26 115.887 13.422C116.378 13.5795 116.792 13.7955 117.12 14.079C117.453 14.3625 117.696 14.6954 117.854 15.0824C117.917 15.2444 117.966 15.4064 118.007 15.5774H120.212C120.153 15.1139 120.036 14.6685 119.861 14.25H119.874Z" fill="white"/>
<path d="M131.049 20.4648C130.923 20.8383 130.761 21.1308 130.563 21.3468C130.365 21.5628 130.127 21.7203 129.852 21.8193C129.578 21.9183 129.281 21.9678 128.966 21.9678C128.516 21.9678 128.16 21.8823 127.895 21.7068C127.629 21.5313 127.431 21.3108 127.296 21.0363C127.161 20.7618 127.076 20.4513 127.035 20.1048C126.995 19.7583 126.972 19.4118 126.972 19.0653V13.5394H133.38V11.3794H126.972V6.56445H125.303L124.628 11.3794H121.41V13.5394H124.628V19.4883C124.628 20.3343 124.722 21.0498 124.916 21.6483C125.105 22.2423 125.388 22.7283 125.766 23.0973C126.14 23.4708 126.59 23.7408 127.112 23.9028C127.634 24.0693 128.237 24.1503 128.921 24.1503C129.605 24.1503 130.221 24.0693 130.779 23.9028C131.337 23.7363 131.805 23.4573 132.188 23.0568C132.57 22.6608 132.867 22.1343 133.088 21.4818C133.263 20.9463 133.366 20.3073 133.402 19.5694H131.225C131.198 19.9113 131.144 20.2128 131.058 20.4648H131.049Z" fill="white"/>
<path d="M43.7692 9.49386C43.3957 8.68387 42.8557 8.02236 42.1492 7.50936C41.4427 6.99637 40.5697 6.62288 39.5302 6.39338C38.4907 6.15938 37.2982 6.04688 35.9528 6.04688C33.0593 6.04688 30.9128 6.78038 29.5043 8.25637C28.1003 9.72786 27.3984 12.0003 27.3984 15.0783C27.3984 18.1563 28.1498 20.4378 29.6573 21.9228C31.1603 23.4122 33.4688 24.1547 36.5783 24.1547C37.7572 24.1547 38.8372 24.0467 39.8092 23.8307C40.7812 23.6147 41.6092 23.2682 42.2932 22.7912C42.9772 22.3097 43.5037 21.6797 43.8772 20.8922C44.2147 20.1813 44.3992 19.3173 44.4307 18.3003H42.1087C42.0727 19.0068 41.9152 19.5828 41.6452 20.0193H41.6407C41.3257 20.5233 40.9072 20.9103 40.3942 21.1848C39.8812 21.4593 39.3007 21.6393 38.6617 21.7293C38.0182 21.8193 37.3748 21.8643 36.7313 21.8643C34.4363 21.8643 32.7308 21.3243 31.6193 20.2398C30.5033 19.1598 29.9498 17.4318 29.9498 15.0693C29.9498 13.8768 30.0533 12.8598 30.2603 12.0183C30.4673 11.1723 30.8093 10.4749 31.2818 9.92136C31.7543 9.36787 32.3663 8.96287 33.1178 8.70637C33.8648 8.44987 34.7783 8.32385 35.8628 8.32385C36.6098 8.32385 37.3523 8.37336 38.0813 8.47236C38.8102 8.57136 39.4672 8.76936 40.0522 9.06636C40.6327 9.36336 41.1097 9.78184 41.4742 10.3173C41.7937 10.7853 41.9737 11.3883 42.0142 12.1128H44.3362C44.3047 11.0959 44.1202 10.2183 43.7827 9.48485L43.7692 9.49386Z" fill="white"/>
<path d="M129.583 6.04199H129.016V9.16049H129.583V6.04199Z" fill="white"/>
<path d="M131.272 6.56445C130.826 6.56445 130.493 6.67244 130.277 6.89294C130.061 7.10894 129.953 7.43745 129.953 7.86044C129.953 8.28344 130.061 8.61192 130.277 8.82792C130.493 9.04392 130.826 9.15644 131.272 9.15644C131.717 9.15644 132.055 9.04842 132.271 8.82792C132.487 8.61192 132.599 8.28344 132.599 7.86044C132.599 7.43745 132.491 7.10894 132.271 6.89294C132.055 6.67694 131.722 6.56445 131.272 6.56445ZM131.843 8.44093C131.717 8.57143 131.528 8.63893 131.272 8.63893C131.015 8.63893 130.826 8.57593 130.705 8.44093C130.583 8.31043 130.52 8.11694 130.52 7.86044C130.52 7.60395 130.579 7.41493 130.696 7.27993C130.813 7.14943 131.006 7.08196 131.267 7.08196C131.528 7.08196 131.717 7.14493 131.839 7.27993C131.965 7.41043 132.023 7.60395 132.023 7.86044C132.023 8.11694 131.96 8.30593 131.839 8.44093H131.843Z" fill="white"/>
<path d="M135 6.04199H133.938H133.371H132.309V6.5595H133.371V9.16049H133.938V6.5595H135V6.04199Z" fill="white"/>
</svg>
